<svg xmlns="http://www.w3.org/2000/svg" viewBox="0 0 16 16" width="16" height="16">
  
  <path d="M 8 1.5 C 11.5 1.5 13 4 13 6.5 C 13 8.5 11.5 10 10 10.5 L 6 10.5 C 4.5 10 3 8.5 3 6.5 C 3 4 4.5 1.5 8 1.5 Z" fill="#F5A820"></path>
  
  <ellipse cx="6.5" cy="4.5" rx="1.3" ry="0.8" fill="#FFE680" opacity="0.7" transform="rotate(-20 6.5 4.5)"></ellipse>
  
  <path d="M 6 7 Q 7 5.5 8 7 Q 9 5.5 10 7" stroke="#7D4620" stroke-width="0.7" fill="none" stroke-linecap="round"></path>
  
  <rect x="5.5" y="10.5" width="5" height="1.3" fill="#9C5E2E"></rect>
  <rect x="5.5" y="12" width="5" height="1.3" fill="#9C5E2E"></rect>
  <rect x="6.2" y="13.5" width="3.6" height="1.2" rx="0.4" fill="#7D4620"></rect>
</svg>